<mxfile host="app.diagrams.net" agent="Mozilla/5.0 (Macintosh; Intel Mac OS X 10_15_7) AppleWebKit/537.36 (KHTML, like Gecko) Chrome/128.0.0.0 Safari/537.36" version="24.7.7">
  <diagram name="第 1 页" id="4gi9JpSscXrHQbKFYJDs">
    <mxGraphModel dx="2124" dy="761" grid="1" gridSize="10" guides="1" tooltips="1" connect="1" arrows="1" fold="1" page="1" pageScale="1" pageWidth="690" pageHeight="980" math="0" shadow="0">
      <root>
        <mxCell id="0" />
        <mxCell id="1" parent="0" />
        <mxCell id="M5Thxs6_bNAxm-UwkLnd-4" style="edgeStyle=orthogonalEdgeStyle;rounded=0;orthogonalLoop=1;jettySize=auto;html=1;exitX=0.5;exitY=0;exitDx=0;exitDy=0;" edge="1" parent="1" source="M5Thxs6_bNAxm-UwkLnd-1" target="M5Thxs6_bNAxm-UwkLnd-2">
          <mxGeometry relative="1" as="geometry" />
        </mxCell>
        <mxCell id="M5Thxs6_bNAxm-UwkLnd-7" style="edgeStyle=orthogonalEdgeStyle;rounded=0;orthogonalLoop=1;jettySize=auto;html=1;exitX=0;exitY=0.5;exitDx=0;exitDy=0;" edge="1" parent="1" source="M5Thxs6_bNAxm-UwkLnd-1" target="M5Thxs6_bNAxm-UwkLnd-6">
          <mxGeometry relative="1" as="geometry" />
        </mxCell>
        <mxCell id="M5Thxs6_bNAxm-UwkLnd-9" style="edgeStyle=orthogonalEdgeStyle;rounded=0;orthogonalLoop=1;jettySize=auto;html=1;exitX=1;exitY=0.5;exitDx=0;exitDy=0;" edge="1" parent="1" source="M5Thxs6_bNAxm-UwkLnd-1" target="M5Thxs6_bNAxm-UwkLnd-8">
          <mxGeometry relative="1" as="geometry" />
        </mxCell>
        <mxCell id="M5Thxs6_bNAxm-UwkLnd-1" value="ResourceConfig" style="rounded=0;whiteSpace=wrap;html=1;" vertex="1" parent="1">
          <mxGeometry x="190" y="330" width="120" height="60" as="geometry" />
        </mxCell>
        <mxCell id="M5Thxs6_bNAxm-UwkLnd-2" value="Application" style="rounded=0;whiteSpace=wrap;html=1;" vertex="1" parent="1">
          <mxGeometry x="190" y="180" width="120" height="60" as="geometry" />
        </mxCell>
        <mxCell id="M5Thxs6_bNAxm-UwkLnd-3" value="" style="endArrow=none;dashed=1;html=1;rounded=0;" edge="1" parent="1">
          <mxGeometry width="50" height="50" relative="1" as="geometry">
            <mxPoint x="-190" y="290" as="sourcePoint" />
            <mxPoint x="960" y="290" as="targetPoint" />
          </mxGeometry>
        </mxCell>
        <mxCell id="M5Thxs6_bNAxm-UwkLnd-6" value="Configurable" style="rounded=1;whiteSpace=wrap;html=1;" vertex="1" parent="1">
          <mxGeometry x="-50" y="180" width="120" height="60" as="geometry" />
        </mxCell>
        <mxCell id="M5Thxs6_bNAxm-UwkLnd-12" style="edgeStyle=orthogonalEdgeStyle;rounded=0;orthogonalLoop=1;jettySize=auto;html=1;exitX=0.5;exitY=0;exitDx=0;exitDy=0;" edge="1" parent="1" source="M5Thxs6_bNAxm-UwkLnd-8" target="M5Thxs6_bNAxm-UwkLnd-10">
          <mxGeometry relative="1" as="geometry" />
        </mxCell>
        <mxCell id="M5Thxs6_bNAxm-UwkLnd-8" value="ServerConfig" style="rounded=1;whiteSpace=wrap;html=1;" vertex="1" parent="1">
          <mxGeometry x="420" y="330" width="120" height="60" as="geometry" />
        </mxCell>
        <mxCell id="M5Thxs6_bNAxm-UwkLnd-10" value="Configuration" style="rounded=1;whiteSpace=wrap;html=1;" vertex="1" parent="1">
          <mxGeometry x="420" y="180" width="120" height="60" as="geometry" />
        </mxCell>
      </root>
    </mxGraphModel>
  </diagram>
</mxfile>
